PathFileType	4	(X/Y/Z)	pose_F01_0-96.trc
DataRate	CameraRate	NumFrames	NumMarkers	Units	OrigDataRate	OrigDataStartFrame	OrigNumFrames
30	30	11	21	m	30	48	96
Frame#	Time	CHip			RHip			RKnee			RAnkle			RBigToe			RSmallToe			RHeel			LHip			LKnee			LAnkle			LBigToe			LSmallToe			LHeel			Neck			Nose			RShoulder			RElbow			RWrist			LShoulder			LElbow			LWrist			
		X1	Y1	Z1	X2	Y2	Z2	X3	Y3	Z3	X4	Y4	Z4	X5	Y5	Z5	X6	Y6	Z6	X7	Y7	Z7	X8	Y8	Z8	X9	Y9	Z9	X10	Y10	Z10	X11	Y11	Z11	X12	Y12	Z12	X13	Y13	Z13	X14	Y14	Z14	X15	Y15	Z15	X16	Y16	Z16	X17	Y17	Z17	X18	Y18	Z18	X19	Y19	Z19	X20	Y20	Z20	X21	Y21	Z21	
48	1.6	-0.282059900831159	1.8776324139554834	-0.60065343524768	-0.2901380103229831	1.8740161517175882	-0.5368321851623733	-0.28258399714517046	1.7293485970130842	-0.49811737281621044	-0.29275629158682925	1.556563569451173	-0.4336830566168926	-0.2423653133353147	1.528763876202064	-0.4259156220237592	-0.2508940068174619	1.5259631346612506	-0.40115632616951924	-0.34858848952811816	1.5533060781926975	-0.4008680551061525	-0.2741191622708008	1.8810800140197612	-0.6591026022189672	-0.28529436257104535	1.7309332918543126	-0.6597264678520707													-0.2958646474087895	2.0462726731305447	-0.6131489018836732	-0.266741873059768	2.1161219786211016	-0.609202714543033	-0.3094076524096864	2.0427150541712966	-0.5274532392802614	-0.2784628291866019	2.052403936023495	-0.4375560631078031	-0.28220243473640094	2.109248142885914	-0.5095865209529215	-0.2844997902078825	2.0503938911362027	-0.6942365038239239	-0.2224168620694235	2.0299323317468443	-0.7307477260737177	-0.23356368629964938	2.099556306558981	-0.7161979596943865
49	1.6333333333333333	-0.2817391621360065	1.8761211460906095	-0.6005388834117128	-0.29086350754948814	1.8736505568722213	-0.5398091826911933	-0.28048222497906683	1.7291856040268887	-0.49595170588467535	-0.29275629158682925	1.556563569451173	-0.4336830566168926	-0.2423653133353147	1.528763876202064	-0.4259156220237592	-0.25010187160966746	1.5224556913887564	-0.40106467880062224	-0.34858848952811816	1.5533060781926975	-0.4008680551061525	-0.2756163510997954	1.879817477393646	-0.6650659974876879	-0.2847158745145373	1.7313484417983627	-0.6583069656141473													-0.2968968636497755	2.0463736195572464	-0.616145295425603	-0.26694287622432056	2.114895142894708	-0.6093031597610181	-0.3104621484863765	2.042838252379265	-0.5303868336451091	-0.2746310725121122	2.054168571372931	-0.450197300836002	-0.28606307702054495	2.10804332763203	-0.5136952540646188	-0.2906249026441557	2.0505010451566466	-0.6959340115215757	-0.2219521888213316	2.0323548813146703	-0.7195991494798972	-0.2358692356169438	2.0994859842114195	-0.7144890017784747
50	1.6666666666666667	-0.2815483257160204	1.8791806213688111	-0.600928842151848	-0.29185517138406103	1.8754950099704242	-0.5349439699377095	-0.27952296670190135	1.7272184690595032	-0.4923103180703959	-0.29275629158682925	1.556563569451173	-0.4336830566168926	-0.2423653133353147	1.528763876202064	-0.4259156220237592	-0.2541220727285375	1.5292796260640262	-0.4026635487143133	-0.34858848952811816	1.5533060781926975	-0.4008680551061525	-0.27455211644851824	1.883422131725959	-0.6624376202673344	-0.2841373864580292	1.7317635917424128	-0.6568874633762238													-0.29796009668795337	2.0456359967981186	-0.6105151934391888	-0.2689780375255424	2.1135197533928936	-0.6066412258120054	-0.3123585161486303	2.043982467658788	-0.5280952986259206	-0.27940725550939416	2.050394595459282	-0.4412931246907233	-0.28340020098892177	2.100657336220865	-0.5205942280138496	-0.29173879854097085	2.051719997474922	-0.6906237916907546	-0.22200671206452022	2.0338499676203896	-0.7200060746947631	-0.24509858424645012	2.0971627734970437	-0.6979142015513718
51	1.7	-0.28413506911600006	1.8753117153364114	-0.5983483393121403	-0.2962222950163114	1.8722715888330317	-0.5299910238354878	-0.2810470574341906	1.7311140780674408	-0.49556343711303996	-0.29275629158682925	1.556563569451173	-0.4336830566168926	-0.2423653133353147	1.528763876202064	-0.4259156220237592	-0.24942401869305253	1.5287119859856995	-0.403024241032796	-0.34858848952811816	1.5533060781926975	-0.4008680551061525	-0.27714490188231267	1.8795595012992528	-0.6599293037588176	-0.2851403251341968	1.7281349657886818	-0.6596823689591164													-0.3021153930645794	2.046884330267395	-0.6067796697549446	-0.2710441889340244	2.1142422196851625	-0.6043648532155264	-0.31425786077259127	2.0448888851417566	-0.5259250709276021	-0.2804908776374518	2.0510174902818763	-0.4443032374399644	-0.2857625713646747	2.098770180950752	-0.5214444113384051	-0.291832475973637	2.051858529337571	-0.6906289679248133	-0.22601517176781313	2.0379046951785806	-0.7152786367179531	-0.24950428225802088	2.0994691290428107	-0.6936518369261004
52	1.7333333333333334	-0.2839567403312757	1.876571555528614	-0.598437628737628	-0.2961628179920537	1.8721821961130345	-0.5300634080335417	-0.28084579346782684	1.729142980903347	-0.495449639639289	-0.29275629158682925	1.556563569451173	-0.4336830566168926	-0.2423653133353147	1.528763876202064	-0.4259156220237592	-0.24953135139059976	1.5292931846055335	-0.4030398918798392	-0.34858848952811816	1.5533060781926975	-0.4008680551061525	-0.2769887884546933	1.8812197535601844	-0.6599120101776597	-0.2861839070528871	1.7287569834466303	-0.6628204546302247													-0.3051751227969593	2.0468844224892178	-0.6075652212400243	-0.27116626002492517	2.113083279738356	-0.6045570168786069	-0.3154981169857792	2.042758969618615	-0.529233432629753	-0.28825080651831164	2.0507433029321476	-0.4357972152135246	-0.28812494174042763	2.0968830256806394	-0.5222945946629606	-0.29391510301990403	2.0518321865479177	-0.6885093458411943	-0.23003970262284595	2.0390739201815458	-0.719483439058443	-0.24977322951277303	2.0980813838456496	-0.685609500178497
53	1.7666666666666666	-0.28550243706570905	1.8754693295867721	-0.5962645523263606	-0.29875551818087354	1.872747615815493	-0.5310531484824985	-0.2796131430567998	1.7243924117242788	-0.49196666083471874	-0.29275629158682925	1.556563569451173	-0.4336830566168926	-0.2423653133353147	1.528763876202064	-0.4259156220237592	-0.24904417534879536	1.5292584912169735	-0.4035611428834235	-0.34858848952811816	1.5533060781926975	-0.4008680551061525	-0.27651250372720887	1.881040041088755	-0.6598766712931747	-0.2867567103558596	1.7268867820941707	-0.6599817705354926													-0.3073246900891889	2.0445822106871274	-0.6049979647292649	-0.2752522300395761	2.112975115589344	-0.6002973515759448	-0.31760140241560475	2.040097117386894	-0.5267031746916447	-0.28371823102580707	2.0478560314287577	-0.44481278275429553	-0.2904873121161805	2.0949958704105267	-0.5231447779875161	-0.29407012887766026	2.0494184068915544	-0.6880950838526164	-0.23497562959147608	2.0399901385437835	-0.7176016295070533	-0.25871879863544	2.0958308743298404	-0.6775206368418063
54	1.8	-0.2881649979141182	1.8755632739480925	-0.5941627237077619	-0.29910997377678084	1.8735328710256816	-0.5311033362491507	-0.2811545099607921	1.7256042733868555	-0.49486569881690096	-0.29275629158682925	1.556563569451173	-0.4336830566168926	-0.2423653133353147	1.528763876202064	-0.4259156220237592	-0.25383327150092416	1.5329319636324579	-0.399263557021322	-0.34858848952811816	1.5533060781926975	-0.4008680551061525	-0.27694288826446034	1.8818135740316504	-0.6600388691093745	-0.287329513658832	1.725016580741711	-0.6571430864407605													-0.3103633071872617	2.044760896386408	-0.6059726357086016	-0.27825831032037274	2.111750480926437	-0.6004711212564429	-0.31874142254437976	2.0392496866922993	-0.5300341843269637	-0.2952155761553424	2.0477703057532914	-0.4320729426483107	-0.29284968249193344	2.093108715140414	-0.5239949613120716	-0.297154896101988	2.0506579188010603	-0.6894166939641236	-0.23090576768212576	2.034833313168447	-0.7022536434530009	-0.26087914655458927	2.0915073298572495	-0.6737264568776041
55	1.8333333333333333	-0.28994464226543576	1.8780137370518055	-0.5922718974432372	-0.30092429302460716	1.8745637207313977	-0.5292474744294812	-0.2814775765631115	1.7250671278757777	-0.49440703095628225	-0.29275629158682925	1.556563569451173	-0.4336830566168926	-0.2423653133353147	1.528763876202064	-0.4259156220237592	-0.2529830431613793	1.5291882820566671	-0.3995046827495681	-0.34858848952811816	1.5533060781926975	-0.4008680551061525	-0.2768102243121708	1.8830377004318906	-0.6600973830529996	-0.28889943913592814	1.7265279591716558	-0.6600687905178596													-0.3103266602401633	2.0442747655230815	-0.5973009145865975	-0.2804149847094553	2.109190951852425	-0.5980846175433052	-0.3244458672629578	2.040650592910797	-0.5228545208855667	-0.28943234956433683	2.0487709844123523	-0.4390293881866947	-0.29521205286768637	2.0912215598703012	-0.5248451446366271	-0.2960905646182622	2.0493564009003986	-0.6853986880652371	-0.23510837840502855	2.0405161169681003	-0.7174409811841808	-0.25896408793962633	2.093061885093917	-0.6596786867552604
56	1.8666666666666667	-0.2873931363755825	1.8797307308261604	-0.5945271699744967	-0.2985112219662332	1.8758673973308957	-0.5313416914050241	-0.2804060240217613	1.7281082284942213	-0.49586036456688265	-0.29275629158682925	1.556563569451173	-0.4336830566168926	-0.2423653133353147	1.528763876202064	-0.4259156220237592	-0.24894784549585308	1.5287724484799492	-0.403831644945333	-0.34858848952811816	1.5533060781926975	-0.4008680551061525	-0.2764783822499933	1.8840715113635416	-0.6601056990868627	-0.28908967077000813	1.7264385541129608	-0.6577458709402739													-0.310426442083467	2.0419695286174635	-0.5968603662026607	-0.28325816699475276	2.1120737079300924	-0.59929320771761	-0.3264249807176731	2.041012457800267	-0.5206574901556321	-0.2836089219923503	2.049546297317239	-0.44524044226345466	-0.2960062667283473	2.089771160714371	-0.5204688774250735	-0.29512298042687113	2.048091181404628	-0.6819120273082848	-0.23949511124871645	2.0456041826351856	-0.7336474708386937	-0.26151112845339536	2.09723650326866	-0.6686698280359689
57	1.9	-0.2899104925413776	1.8766824250170187	-0.5920349688683081	-0.30063297904650077	1.8742235899888837	-0.5291592005401823	-0.28288614113276	1.7232493832531224	-0.49270969049372126	-0.29275629158682925	1.556563569451173	-0.4336830566168926	-0.2423653133353147	1.528763876202064	-0.4259156220237592	-0.25260963303406336	1.5273466369037187	-0.3995180666375456	-0.34858848952811816	1.5533060781926975	-0.4008680551061525	-0.2797276320162848	1.8813943754488165	-0.6607970178062442	-0.28927990240408813	1.7263491490542655	-0.6554229513626884													-0.3124149203241708	2.0436187525771925	-0.6034462654349932	-0.2823505820715382	2.1122662601961943	-0.596322979499158	-0.32257985386744925	2.0411646719163645	-0.5255072327228157	-0.2874891033564174	2.0502721705045017	-0.4418115736622194	-0.29680048058900826	2.0883207615584407	-0.5160926102135199	-0.29725744810039717	2.04805073096105	-0.6884811177301593	-0.23292201906360716	2.045844907400502	-0.7022928199701894	-0.2640581689671644	2.101411121443404	-0.6776609693166774
58	1.9333333333333333	-0.29322247086617037	1.877302040297321	-0.5929578990782717	-0.3021819230780691	1.8741530013184082	-0.5321832213742531	-0.280838097739305	1.7229606246354001	-0.4860729856941213	-0.29275629158682925	1.556563569451173	-0.4336830566168926	-0.2423653133353147	1.528763876202064	-0.4259156220237592	-0.2523026711464571	1.5314368794252824	-0.3958414273430819	-0.34858848952811816	1.5533060781926975	-0.4008680551061525	-0.27910786965380235	1.8815538546124848	-0.6578863403543398	-0.28688287943099494	1.7287586197603237	-0.6539514021235796													-0.31028520388003117	2.044270944062908	-0.5965757668953787	-0.28146958905855457	2.113345655600195	-0.5937710118133497	-0.32712943607665373	2.043389997343493	-0.5155082741115433	-0.2861103990680435	2.0447554763097244	-0.44426765671351054	-0.29759469444966924	2.08687036240251	-0.5117163430019663	-0.29507242698919606	2.045551204092312	-0.6809284285746947	-0.2416917167945155	2.0521683027107716	-0.7433118860833314	-0.26250640314164625	2.1013699361905664	-0.6696956119766828
